<svg width="20" height="20" viewBox="0 0 20 20" fill="none" xmlns="http://www.w3.org/2000/svg">
<g clip-path="url(#clip0_562_1044)">
<path d="M10 0C15.5234 0 20 4.47754 20 10C20 15.5234 15.5234 20 10 20C4.47754 20 0 15.5229 0 10C0 4.47754 4.47754 0 10 0Z" fill="#F5AC37"/>
<path d="M10.3654 10.7015H14.1652C14.2462 10.7015 14.2845 10.7015 14.2903 10.5953C14.3214 10.2087 14.3214 9.81994 14.2903 9.43294C14.2903 9.35779 14.253 9.32674 14.1715 9.32674H6.60922C6.51562 9.32674 6.49042 9.35779 6.49042 9.44554V10.5579C6.49042 10.7015 6.49042 10.7015 6.64027 10.7015H10.3654ZM13.866 8.02667C13.8768 7.99832 13.8768 7.96727 13.866 7.93937C13.8025 7.80122 13.7274 7.66937 13.6401 7.54562C13.5087 7.33412 13.3539 7.13927 13.1775 6.96421C13.0942 6.85846 12.9979 6.76351 12.8899 6.68296C12.349 6.22261 11.706 5.8968 11.0148 5.733C10.666 5.6547 10.3096 5.61735 9.95231 5.6205H6.59617C6.50257 5.6205 6.48997 5.65785 6.48997 5.7393V7.95782C6.48997 8.05142 6.48997 8.07662 6.60877 8.07662H13.821C13.821 8.07662 13.8835 8.06402 13.8961 8.02667H13.8655H13.866ZM13.866 12.0016C13.7598 11.9899 13.6527 11.9899 13.5465 12.0016H6.61552C6.52192 12.0016 6.49042 12.0016 6.49042 12.1267V14.2957C6.49042 14.3956 6.49042 14.4208 6.61552 14.4208H9.8155C9.96851 14.4325 10.1215 14.4217 10.2714 14.3897C10.7358 14.3564 11.1925 14.2556 11.6281 14.0896C11.7865 14.0347 11.9395 13.9631 12.084 13.8772H12.1276C12.8778 13.487 13.4871 12.8741 13.8714 12.1217C13.8714 12.1217 13.915 12.0272 13.866 12.0025V12.0016ZM5.23446 15.5453V15.508V14.0518V13.5581V12.0893C5.23446 12.0079 5.23446 11.9957 5.13456 11.9957H3.77824C3.70309 11.9957 3.67204 11.9957 3.67204 11.8958V10.7083H5.12196C5.20296 10.7083 5.23446 10.7083 5.23446 10.602V9.42709C5.23446 9.35194 5.23446 9.33349 5.13456 9.33349H3.77824C3.70309 9.33349 3.67204 9.33349 3.67204 9.23359V8.13378C3.67204 8.06492 3.67204 8.04647 3.77194 8.04647H5.11566C5.20926 8.04647 5.23446 8.04647 5.23446 7.92767V4.55894C5.23446 4.45904 5.23446 4.43384 5.35956 4.43384H10.0468C10.387 4.44734 10.725 4.48469 11.0593 4.54634C11.7483 4.67369 12.4102 4.91984 13.0155 5.2713C13.4169 5.50755 13.7863 5.79285 14.1153 6.12136C14.3628 6.37831 14.586 6.65641 14.784 6.95251C14.9807 7.25267 15.144 7.57352 15.2723 7.90877C15.288 7.99607 15.3717 8.05502 15.459 8.04017H16.5777C16.7213 8.04017 16.7213 8.04017 16.7276 8.17788V9.20299C16.7276 9.30289 16.6902 9.32809 16.5899 9.32809H15.7272C15.6399 9.32809 15.6147 9.32809 15.621 9.44059C15.6552 9.82129 15.6552 10.2033 15.621 10.584C15.621 10.6903 15.621 10.7029 15.7403 10.7029H16.7271C16.7708 10.7591 16.7271 10.8154 16.7271 10.8721C16.7334 10.9445 16.7334 11.0179 16.7271 11.0903V11.8468C16.7271 11.953 16.6961 11.9845 16.602 11.9845H15.4208C15.3384 11.9687 15.2583 12.0214 15.2394 12.1033C14.9582 12.8345 14.5082 13.4902 13.9267 14.0158C13.7143 14.207 13.4911 14.387 13.258 14.5531C13.0078 14.6971 12.7644 14.8469 12.5079 14.9657C12.0358 15.1781 11.5408 15.3347 11.0328 15.4342C10.5504 15.5206 10.0612 15.5597 9.57025 15.553H5.23266V15.5467L5.23446 15.5453Z" fill="#FEFEFD"/>
</g>
<defs>
<clipPath id="clip0_562_1044">
<rect width="20" height="20" fill="white"/>
</clipPath>
</defs>
</svg>
