<?xml version="1.0" encoding="UTF-8" standalone="no"?>
<svg
   xmlns:dc="http://purl.org/dc/elements/1.1/"
   xmlns:cc="http://creativecommons.org/ns#"
   xmlns:rdf="http://www.w3.org/1999/02/22-rdf-syntax-ns#"
   xmlns:svg="http://www.w3.org/2000/svg"
   xmlns="http://www.w3.org/2000/svg"
   xmlns:sodipodi="http://sodipodi.sourceforge.net/DTD/sodipodi-0.dtd"
   xmlns:inkscape="http://www.inkscape.org/namespaces/inkscape"
   width="20"
   height="20"
   viewBox="0 0 20 20"
   fill="none"
   version="1.1"
   id="svg117"
   sodipodi:docname="ergo.svg"
   inkscape:version="0.92.5 (2060ec1f9f, 2020-04-08)">
  <metadata
     id="metadata123">
    <rdf:RDF>
      <cc:Work
         rdf:about="">
        <dc:format>image/svg+xml</dc:format>
        <dc:type
           rdf:resource="http://purl.org/dc/dcmitype/StillImage" />
        <dc:title></dc:title>
      </cc:Work>
    </rdf:RDF>
  </metadata>
  <defs
     id="defs121">
    <clipPath
       id="clip0_13264_116955">
      <rect
         style="fill:#ffffff"
         y="0"
         x="0"
         width="44"
         height="44"
         transform="translate(10,10)"
         id="rect131" />
    </clipPath>
  </defs>
  <sodipodi:namedview
     pagecolor="#ffffff"
     bordercolor="#666666"
     borderopacity="1"
     objecttolerance="10"
     gridtolerance="10"
     guidetolerance="10"
     inkscape:pageopacity="0"
     inkscape:pageshadow="2"
     inkscape:window-width="1280"
     inkscape:window-height="1020"
     id="namedview119"
     showgrid="false"
     inkscape:zoom="10.6"
     inkscape:cx="6.2896484"
     inkscape:cy="8.6383204"
     inkscape:window-x="3200"
     inkscape:window-y="23"
     inkscape:window-maximized="0"
     inkscape:current-layer="svg117" />
  <g
     transform="matrix(0.45111348,0,0,0.453259,-4.4591906,-4.4807039)"
     clip-path="url(#clip0_13264_116955)"
     id="g129">
    <path
       style="fill:#000000"
       inkscape:connector-curvature="0"
       d="m 32.4525,54.0001 c -0.1493,0 -0.299,0 -0.4482,0 C 31.884,53.9573 31.762,53.9185 31.6438,53.8712 26.8136,51.9322 21.9842,49.9915 17.1527,48.0553 16.7302,47.886 16.4476,47.603 16.2694,47.1841 15.0256,44.2588 13.7719,41.3376 12.5264,38.4131 11.6802,36.4247 10.8421,34.4331 10,32.4426 c 0,-0.1492 0,-0.2989 0,-0.4482 0.0428,-0.1203 0.0816,-0.2423 0.1293,-0.3606 1.9416,-4.8386 3.8845,-9.6764 5.8249,-14.5155 0.1602,-0.4001 0.4322,-0.677 0.8295,-0.8463 4.789,-2.0426 9.578,-4.0865 14.365,-6.1353 0.4192,-0.17943 0.8197,-0.18106 1.2406,-0.0118 4.8241,1.9407 9.6498,3.8777 14.4763,5.8122 0.4078,0.1636 0.6905,0.4357 0.8626,0.8394 2.0427,4.7897 4.0871,9.5786 6.1356,14.3658 0.1762,0.412 0.1815,0.8084 0.0147,1.222 -1.9404,4.8244 -3.8788,9.6496 -5.8127,14.4764 -0.1692,0.4225 -0.4498,0.7084 -0.8686,0.8863 -2.9196,1.2424 -5.8355,2.4941 -8.7547,3.7373 -1.9942,0.8501 -3.9929,1.6911 -5.99,2.5358 z M 49.9659,31.8023 C 49.9385,31.7338 49.912,31.6644 49.8831,31.5959 48.1388,27.5122 46.3938,23.429 44.6532,19.3437 44.5949,19.2071 44.5154,19.13 44.3791,19.0749 40.2577,17.423 36.1371,15.7679 32.0186,14.109 c -0.1505,-0.0607 -0.2733,-0.0562 -0.4213,0.007 -4.088,1.751 -8.1784,3.4963 -12.2656,5.2497 -0.0975,0.0416 -0.197,0.1457 -0.2369,0.244 -1.6647,4.1309 -3.3221,8.2651 -4.984,12.3973 -0.0518,0.1289 -0.0559,0.2329 -4e-4,0.363 1.7561,4.1008 3.5073,8.2036 5.265,12.3036 0.0395,0.0926 0.1353,0.1897 0.2279,0.2272 4.1439,1.669 8.2898,3.3328 12.4381,4.9904 0.0922,0.0367 0.2272,0.0346 0.3185,-0.0041 4.1112,-1.749 8.2196,-3.5037 12.3263,-5.2628 0.0873,-0.0376 0.1803,-0.1261 0.2154,-0.2134 1.6749,-4.1562 3.3437,-8.3149 5.0129,-12.4732 0.0175,-0.0432 0.0334,-0.0881 0.0514,-0.1354 z M 24.9127,22.3918 c 0,0.0881 0,0.1623 0,0.2365 0,1.0458 0.0029,2.0916 -0.0028,3.1374 -9e-4,0.1526 0.0391,0.2631 0.1472,0.3757 1.7573,1.8244 3.5097,3.6533 5.2629,5.4814 0.0546,0.0567 0.1064,0.1163 0.1607,0.1758 -0.0547,0.0636 -0.0934,0.1105 -0.1342,0.1558 -1.7797,1.9705 -3.5611,3.9393 -5.3359,5.9138 -0.0722,0.0804 -0.1232,0.2117 -0.124,0.3198 -0.009,1.0592 -0.0053,2.1189 -0.0053,3.1782 0,0.0717 0,0.1435 0,0.2165 4.7654,0 9.5002,0 14.2329,0 0,-1.3194 0,-2.6206 0,-3.9466 -2.8274,0 -5.641,0 -8.5026,0 1.8025,-1.9855 3.5708,-3.9339 5.3449,-5.8881 -1.7219,-1.804 -3.4278,-3.5913 -5.1337,-5.3786 0.0098,-0.0155 0.0196,-0.0314 0.0294,-0.0469 2.7532,0 5.5068,0 8.2657,0 0,-1.3203 0,-2.621 0,-3.9307 -4.7385,0 -9.4663,0 -14.2052,0 z"
       id="path127" />
  </g>
</svg>
