<svg width="20" height="20" viewBox="0 0 20 20" fill="none" xmlns="http://www.w3.org/2000/svg">
<path d="M10 20C4.5 20 0 15.5 0 10C0 4.5 4.5 0 10 0C15.5 0 20 4.5 20 10C20 15.5 15.5 20 10 20Z" fill="#002868"/>
<path d="M15.04 16H4.96C4.432 16 4 15.568 4 15.04V4.96C4 4.432 4.432 4 4.96 4H15.04C15.568 4 16 4.432 16 4.96V15.04C16 15.568 15.568 16 15.04 16Z" fill="white"/>
<path d="M6.34166 14.7918C6.31006 14.7918 6.28446 14.763 6.28446 14.7314V13.119C6.28446 13.0874 6.25886 13.0586 6.22726 13.0586H5.65806C5.62606 13.0586 5.59766 13.033 5.59766 13.0014V12.6898C5.59766 12.6582 5.62646 12.6294 5.65806 12.6294H7.41006C7.44166 12.6294 7.47046 12.6578 7.47046 12.6898V13.0014C7.47046 13.033 7.44166 13.0586 7.41006 13.0586H6.84406C6.81246 13.0586 6.78366 13.087 6.78366 13.119V14.7314C6.78366 14.763 6.75806 14.7918 6.72646 14.7918H6.34166Z" fill="#002868"/>
<path d="M9.21926 12.6898C9.21926 12.6582 9.24486 12.6294 9.27646 12.6294H9.65806C9.68966 12.6294 9.71846 12.6578 9.71846 12.6898V13.7902C9.71846 14.4422 9.34966 14.8206 8.76446 14.8206C8.18246 14.8206 7.81686 14.4422 7.81686 13.7902V12.6898C7.81686 12.6582 7.84246 12.6294 7.87406 12.6294H8.25566C8.28726 12.6294 8.31606 12.6578 8.31606 12.6898V13.8058C8.31606 14.127 8.48126 14.3558 8.76766 14.3558C9.05406 14.3558 9.21926 14.127 9.21926 13.8058V12.6898V12.6898Z" fill="#002868"/>
<path d="M11.4707 13.3353C11.4199 13.3353 11.4039 13.3161 11.3847 13.2781C11.3179 13.1221 11.1715 13.0237 10.9491 13.0237C10.7487 13.0237 10.5803 13.0937 10.5803 13.2273C10.5803 13.3737 10.7363 13.4341 11.0795 13.4753C11.6011 13.5357 11.8999 13.6949 11.8999 14.1081C11.8999 14.5725 11.4927 14.8173 10.9715 14.8173C10.5199 14.8173 10.1319 14.5977 10.0715 14.1369C10.0651 14.0925 10.0875 14.0765 10.1319 14.0765H10.4819C10.5263 14.0765 10.5519 14.0957 10.5647 14.1305C10.6123 14.2833 10.7747 14.4009 11.0099 14.4009C11.2167 14.4009 11.3979 14.3245 11.3979 14.1625C11.3979 13.9685 11.2071 13.9337 10.8255 13.8857C10.3867 13.8285 10.0815 13.7013 10.0815 13.2973C10.0815 12.8933 10.4283 12.6041 10.9719 12.6041C11.4615 12.6041 11.8019 12.8681 11.8719 13.2625C11.8815 13.3069 11.8687 13.3357 11.8211 13.3357H11.4707V13.3353Z" fill="#002868"/>
<path d="M12.3325 14.7918C12.3009 14.7918 12.2753 14.763 12.2753 14.7314V12.6898C12.2753 12.6582 12.3009 12.6294 12.3325 12.6294H13.1973C13.8397 12.6294 14.3389 13.0714 14.3389 13.717C14.3389 14.353 13.8461 14.7918 13.1973 14.7918H12.3325ZM13.1973 14.3622C13.5441 14.3622 13.8141 14.0886 13.8141 13.7102C13.8141 13.3318 13.5437 13.0582 13.1941 13.0582H12.8349C12.8033 13.0582 12.7777 13.0866 12.7777 13.1186V14.3046C12.7777 14.3362 12.8033 14.3618 12.8349 14.3618H13.1973V14.3622Z" fill="#002868"/>
<path d="M15.68 11.44H4.32C4.232 11.44 4.16 11.368 4.16 11.28V4.95997C4.16 4.51997 4.52 4.15997 4.96 4.15997H15.04C15.48 4.15997 15.84 4.51997 15.84 4.95997V11.28C15.84 11.368 15.768 11.44 15.68 11.44Z" fill="#002868"/>
<path d="M10.5892 10.1428H9.54922C9.48322 10.1428 9.42922 10.0888 9.42922 10.0228V5.62281C9.42922 5.55681 9.48322 5.50281 9.54922 5.50281H10.5892C10.6552 5.50281 10.7092 5.55681 10.7092 5.62281V10.0228C10.7092 10.0888 10.6552 10.1428 10.5892 10.1428Z" fill="white"/>
<path d="M12.36 6.78281H7.64C7.574 6.78281 7.52 6.72881 7.52 6.66281V5.62281C7.52 5.55681 7.574 5.50281 7.64 5.50281H12.36C12.426 5.50281 12.48 5.55681 12.48 5.62281V6.66281C12.48 6.72881 12.426 6.78281 12.36 6.78281Z" fill="white"/>
</svg>
