<svg width="20" height="20" viewBox="0 0 20 20" fill="none" xmlns="http://www.w3.org/2000/svg">
<path d="M10 20C15.5417 20 20 15.5417 20 10C20 4.4583 15.5417 0 10 0C4.4583 0 0 4.4583 0 10C0 15.5417 4.4583 20 10 20Z" fill="#4FADD0"/>
<path d="M12.7499 11.5833C12.7499 10.125 11.8749 9.62501 10.1249 9.41671C8.87493 9.25001 8.62493 8.91671 8.62493 8.33331C8.62493 7.74991 9.04163 7.37501 9.87493 7.37501C10.6249 7.37501 11.0416 7.62501 11.2499 8.25001C11.2916 8.37501 11.4166 8.45831 11.5416 8.45831H12.2082C12.3749 8.45831 12.4999 8.33331 12.4999 8.16671V8.12501C12.3332 7.20831 11.5832 6.50001 10.6249 6.41671V5.41671C10.6249 5.25001 10.4999 5.12501 10.2916 5.08331H9.66663C9.49993 5.08331 9.37493 5.20831 9.33323 5.41671V6.37501C8.08323 6.54171 7.29163 7.37501 7.29163 8.41671C7.29163 9.79171 8.12493 10.3333 9.87493 10.5417C11.0416 10.75 11.4166 11 11.4166 11.6667C11.4166 12.3334 10.8332 12.7917 10.0416 12.7917C8.95823 12.7917 8.58323 12.3333 8.45823 11.7083C8.41663 11.5417 8.29163 11.4583 8.16663 11.4583H7.45823C7.29163 11.4583 7.16663 11.5833 7.16663 11.75V11.7917C7.33323 12.8333 7.99993 13.5833 9.37493 13.7917V14.7917C9.37493 14.9583 9.49993 15.0833 9.70823 15.125H10.3332C10.4999 15.125 10.6249 15 10.6666 14.7917V13.7917C11.9166 13.5833 12.7499 12.7083 12.7499 11.5833Z" fill="white"/>
<path d="M7.87508 15.9583C4.62508 14.7917 2.95838 11.1667 4.16678 7.9583C4.79178 6.2083 6.16678 4.875 7.87508 4.25C8.04178 4.1667 8.12508 4.04169 8.12508 3.83329V3.24999C8.12508 3.08329 8.04178 2.95829 7.87508 2.91669C7.83338 2.91669 7.75008 2.91669 7.70838 2.95829C3.75008 4.20829 1.58338 8.4167 2.83338 12.375C3.58338 14.7083 5.37508 16.5 7.70838 17.25C7.87508 17.3333 8.04178 17.25 8.08338 17.0833C8.12508 17.0417 8.12508 17 8.12508 16.9167V16.3333C8.12508 16.2083 8.00008 16.0417 7.87508 15.9583ZM12.2918 2.95829C12.1251 2.87499 11.9584 2.95829 11.9168 3.12499C11.8751 3.16669 11.8751 3.20829 11.8751 3.29169V3.87499C11.8751 4.04169 12.0001 4.2083 12.1251 4.2917C15.3751 5.4583 17.0418 9.0833 15.8334 12.2917C15.2084 14.0417 13.8334 15.375 12.1251 16C11.9584 16.0833 11.8751 16.2083 11.8751 16.4167V17C11.8751 17.1667 11.9584 17.2917 12.1251 17.3333C12.1668 17.3333 12.2501 17.3333 12.2918 17.2917C16.2501 16.0417 18.4168 11.8333 17.1668 7.875C16.4168 5.5 14.5834 3.70829 12.2918 2.95829Z" fill="white"/>
</svg>
