<svg width="20" height="20" viewBox="0 0 20 20" fill="none" xmlns="http://www.w3.org/2000/svg">
<path d="M4.54546 17.1154C5.13859 17.7911 5.85999 18.3423 6.66781 18.737C7.47563 19.1318 8.35378 19.3622 9.25134 19.4149C10.3237 19.3579 11.3354 18.8998 12.0856 18.1314C13.5653 16.8641 15.1188 15.6855 16.738 14.602L17.6471 14.2277C18.0214 14.0673 18.6631 13.6929 19.2513 12.9977C19.8931 12.1421 20 11.233 20 10.9122C19.9289 9.90025 19.5973 8.9239 19.0374 8.07796C17.5764 10.6812 15.4826 12.8741 12.9496 14.4538C10.4165 16.0334 7.52604 16.9488 4.54546 17.1154V17.1154Z" fill="#0293D6"/>
<path d="M6.57753 1.92826C6.97673 1.50659 7.45759 1.17061 7.99082 0.940769C8.52404 0.710929 9.09848 0.592045 9.67913 0.591357C10.047 0.566724 10.4161 0.615501 10.765 0.734849C11.1139 0.854197 11.4355 1.04173 11.7112 1.28654C13.2451 2.37324 15.0722 2.96984 16.9519 2.99777C17.4331 3.05125 18.3957 3.21168 19.0374 4.01382C19.5187 4.65553 19.5722 5.35072 19.5722 5.67157C19.5291 6.49788 19.3484 7.3112 19.0374 8.07799L6.57753 1.92826Z" fill="#EBE638"/>
<path d="M4.54546 17.1153C4.06417 17.0619 3.42246 16.9014 2.6738 16.5806C1.92513 16.2597 1.01604 15.8854 0.427808 14.8694C0.0534759 14.2276 0 13.5859 0 13.1581C0.0130557 12.0236 0.287546 10.9073 0.802139 9.89609C1.31411 8.64621 1.65585 7.33322 1.81818 5.99234L2.08556 4.92282C2.24599 4.38807 2.35294 3.85331 2.72727 3.31855L3.31551 2.67684C4.28708 2.06599 5.43685 1.80211 6.57754 1.92817C5.05013 4.11315 4.06854 6.63232 3.71498 9.27469C3.36142 11.9171 3.6462 14.6057 4.54546 17.1153V17.1153Z" fill="#BAD147"/>
<path d="M6.57762 1.92822C6.52415 1.92822 9.46532 2.08865 11.2835 2.73036L12.7808 3.37207C12.1926 3.3186 8.44928 3.15817 5.61506 5.99239C2.03217 9.62876 3.20864 14.602 3.26211 14.8694C2.43181 13.8248 2.01325 12.512 2.08564 11.1796C2.15604 9.41113 2.59144 7.67637 3.36447 6.08429C4.13751 4.4922 5.23147 3.07721 6.57762 1.92822V1.92822Z" fill="#78B650"/>
<path d="M13.7433 15.1368C14.755 13.2977 15.2032 11.2016 15.032 9.10961C14.8609 7.01762 14.0779 5.02224 12.7807 3.37208C14.3297 3.63105 15.7545 4.38093 16.8449 5.51112C17.4866 6.04587 18.2888 6.84801 19.0374 8.07796C17.9801 10.8866 16.1435 13.3353 13.7433 15.1368V15.1368Z" fill="#2F8260"/>
<path d="M15.4545 5.72511C14.5989 4.28126 13.369 3.63955 12.8342 3.37217C12.4064 3.26522 8.39571 2.62351 5.34759 5.56468C2.88769 7.91762 2.72726 10.9658 2.72726 11.554C2.73859 13.5693 3.41536 15.5244 4.6524 17.1155C6.24208 17.4216 7.87555 17.4216 9.46523 17.1155C10.2674 16.9551 12.139 16.6342 13.7433 15.2438C13.9572 15.0299 16.3102 12.8374 16.4706 9.36147C16.4706 8.77324 16.4706 7.27591 15.4545 5.72511ZM13.5294 13.4791C13.0328 14.0193 12.4294 14.4504 11.7574 14.745C11.0853 15.0395 10.3594 15.1912 9.62566 15.1904C9.3048 15.1904 7.16577 15.1369 5.66844 13.3722C5.45454 13.1048 4.38502 11.8214 4.43849 9.89623C4.54545 7.32939 6.57753 5.83206 7.00534 5.51121C7.37967 5.24383 8.28876 4.65559 9.62566 4.60211C9.94652 4.54864 11.0695 4.49516 12.1925 5.13687C14.6524 6.47377 14.7594 9.68233 14.7594 9.89623C14.7594 10.4845 14.7594 12.0887 13.5294 13.4791Z" fill="#085229"/>
</svg>
