<svg xmlns="http://www.w3.org/2000/svg" width="20px" height="20px" viewBox="0 0 87.31 87.31"><defs><style>.cls-1{fill:#ff2ad4;}.cls-2{fill:#fff;}.cls-3{fill:#fc0;}</style></defs><g id="Layer_2" data-name="Layer 2"><g id="Layer_1-2" data-name="Layer 1"><path id="path6" class="cls-1" d="M83.87,26.66a43.66,43.66,0,1,0,0,34A43.75,43.75,0,0,0,83.87,26.66Z"></path><path class="cls-2" d="M9.27,34.83H22.19l0,22.3v6.39l4.63-4.4,16.85-16,16.81,16,4.63,4.4,0-6.38.07-22.31H78a35.44,35.44,0,1,1-68.77,0M7.18,32.09a38.2,38.2,0,1,0,72.94,0H62.51l-.08,25L43.72,39.33,25,57.14l-.05-25Z"></path><path class="cls-3" d="M24.93,28.34h3.74v3.74l0,16.33,12.43-11.8,2.58-2.46,2.59,2.46L58.7,48.41l.06-16.33V28.34H78.65a38.2,38.2,0,0,0-70,0Z"></path></g></g></svg>