<svg xmlns="http://www.w3.org/2000/svg" viewBox="0 0 1080 1080">
<g transform="translate(0.000000,1080.000000) scale(0.100000,-0.100000)"
fill="#ffffff" stroke="none">
<path d="M5345 10791 c-27 -5 -72 -17 -100 -26 -81 -28 -4022 -1703 -4117
-1750 -134 -66 -223 -130 -335 -239 -204 -197 -326 -426 -379 -711 -14 -76
-16 -136 -11 -390 22 -1214 327 -2555 837 -3680 526 -1163 1246 -2112 2176
-2872 394 -322 909 -652 1389 -890 286 -142 513 -190 773 -165 246 24 384 77
811 309 941 512 1743 1212 2401 2093 870 1166 1459 2689 1659 4291 46 361 62
580 68 914 5 254 3 314 -11 390 -53 285 -175 514 -379 711 -112 109 -201 173
-335 239 -115 57 -4048 1727 -4132 1754 -73 24 -234 35 -315 22z m1460 -1969
c726 -308 1554 -659 1840 -780 l520 -221 -1 -193 c-3 -581 -143 -1429 -344
-2091 -260 -856 -635 -1615 -1118 -2263 -574 -770 -1254 -1345 -2122 -1796
l-125 -65 -30 19 c-16 11 -75 42 -130 70 -224 113 -468 263 -727 445 -590 414
-1135 982 -1562 1627 -314 475 -614 1089 -807 1654 -267 782 -439 1714 -443
2400 l-1 194 1340 567 c737 312 1567 665 1845 783 278 119 514 215 525 213 11
-1 614 -255 1340 -563z"/>
</g>
</svg>
